<?xml version="1.0" standalone="no"?>
<!DOCTYPE svg PUBLIC "-//W3C//DTD SVG 20010904//EN"
 "http://www.w3.org/TR/2001/REC-SVG-20010904/DTD/svg10.dtd">
<svg version="1.0" xmlns="http://www.w3.org/2000/svg"
 width="319.000000pt" height="123.000000pt" viewBox="0 0 319.000000 123.000000"
 preserveAspectRatio="xMidYMid meet">

<g transform="translate(0.000000,123.000000) scale(0.100000,-0.100000)"
fill="#000000" stroke="none">
<path d="M1115 1210 c-88 -5 -187 -14 -220 -20 -150 -29 -346 -111 -489 -203
-59 -38 -74 -44 -94 -36 -28 11 -94 -7 -174 -47 -68 -34 -78 -54 -78 -149 0
-60 -4 -87 -17 -105 l-17 -25 24 16 c37 24 50 57 50 126 0 59 2 63 34 88 50
38 119 46 256 29 219 -26 496 -53 605 -59 370 -20 570 -50 763 -114 64 -22
126 -42 137 -46 49 -15 -128 71 -200 97 -96 36 -287 83 -373 93 -59 7 -65 9
-74 37 -16 46 -106 227 -128 258 l-19 27 172 6 c487 19 659 -1 865 -98 50 -24
92 -42 92 -40 0 2 -37 24 -82 49 -171 92 -296 116 -638 121 -129 2 -307 -1
-395 -5z m-105 -65 c17 -9 48 -38 70 -66 38 -48 100 -165 100 -188 0 -20 -39
-12 -64 14 -22 22 -33 25 -101 25 -59 0 -75 -3 -75 -14 0 -20 39 -46 67 -46
12 0 25 -4 28 -10 4 -6 -5 -8 -22 -5 -15 3 -89 10 -163 15 -74 6 -175 13 -225
17 -65 5 -82 9 -60 14 18 4 2 6 -42 5 -122 -2 -121 28 6 103 76 45 152 80 261
122 86 32 174 38 220 14z"/>
<path d="M908 1143 c12 -2 30 -2 40 0 9 3 -1 5 -23 4 -22 0 -30 -2 -17 -4z"/>
<path d="M795 1119 c-27 -10 -108 -50 -180 -88 -110 -57 -130 -72 -130 -91 0
-13 7 -25 15 -27 13 -4 13 -3 0 6 -11 8 -12 15 -5 27 14 22 256 149 330 173
33 11 51 20 40 20 -11 0 -42 -9 -70 -20z"/>
<path d="M1628 1153 c12 -2 32 -2 45 0 12 2 2 4 -23 4 -25 0 -35 -2 -22 -4z"/>
<path d="M1807 1139 c118 -10 179 -29 356 -109 70 -32 127 -57 127 -55 0 7
-133 77 -207 109 -105 45 -205 66 -300 65 l-78 -2 102 -8z"/>
<path d="M2242 870 c-189 -4 -346 -10 -349 -14 -4 -3 83 -6 193 -7 342 -1 475
-11 581 -47 51 -18 116 -43 145 -57 43 -21 48 -22 28 -6 -14 11 -66 37 -117
58 -50 21 -89 41 -86 46 8 13 159 7 214 -9 94 -28 299 -184 299 -227 0 -9 -18
-22 -42 -31 l-43 -16 49 6 49 6 -6 -85 c-4 -47 -9 -94 -12 -104 -3 -10 4 1 16
25 29 62 37 168 14 215 -35 75 -243 226 -336 246 -53 12 -63 12 -597 1z"/>
<path d="M1788 843 c12 -2 32 -2 45 0 12 2 2 4 -23 4 -25 0 -35 -2 -22 -4z"/>
<path d="M1560 582 c-66 -37 -107 -163 -78 -247 18 -55 69 -88 125 -82 56 6
88 28 114 78 43 85 32 201 -22 241 -39 29 -97 33 -139 10z m106 -67 c21 -32
14 -121 -13 -168 -26 -44 -74 -50 -99 -12 -28 43 -2 182 38 198 31 13 58 6 74
-18z"/>
<path d="M45 568 c2 -13 11 -77 20 -143 22 -175 19 -167 63 -163 l36 3 73 163
72 163 -32 -3 c-30 -3 -33 -8 -77 -115 -26 -62 -49 -115 -52 -118 -3 -3 -10
36 -17 87 -20 153 -18 148 -57 148 -30 0 -34 -3 -29 -22z"/>
<path d="M371 528 c-16 -35 -49 -107 -75 -162 -25 -54 -46 -100 -46 -102 0 -2
15 -4 33 -4 29 0 35 5 46 35 12 35 13 35 72 35 l59 0 0 -35 c0 -34 1 -35 41
-35 29 0 40 4 36 13 -2 6 -15 81 -28 165 l-24 152 -43 0 -43 0 -28 -62z m71
-108 c3 -34 2 -35 -34 -38 -21 -2 -38 -1 -38 2 0 3 12 36 27 73 l27 68 7 -35
c4 -19 9 -51 11 -70z"/>
<path d="M625 568 c-3 -13 -15 -87 -28 -165 l-24 -143 37 0 36 0 24 153 c12
83 25 158 27 165 4 8 -6 12 -31 12 -29 0 -37 -4 -41 -22z"/>
<path d="M741 438 c-13 -84 -26 -159 -28 -165 -4 -9 6 -13 31 -13 34 0 36 2
42 40 4 24 20 55 39 77 l33 38 10 -40 c6 -22 15 -56 19 -75 8 -31 13 -35 47
-38 32 -3 37 -1 32 15 -2 10 -17 58 -31 106 l-27 89 52 59 51 59 -38 0 c-35
-1 -43 -7 -98 -75 -33 -40 -61 -72 -63 -70 -2 2 1 29 7 61 16 83 15 84 -22 84
l-33 0 -23 -152z"/>
<path d="M1121 528 c-16 -35 -49 -107 -75 -162 -25 -54 -46 -100 -46 -102 0
-2 15 -4 33 -4 29 0 35 5 46 35 12 35 13 35 72 35 l59 0 0 -35 c0 -34 1 -35
41 -35 29 0 40 4 36 13 -2 6 -15 81 -28 165 l-24 152 -43 0 -43 0 -28 -62z
m71 -108 c3 -34 2 -35 -34 -38 -21 -2 -38 -1 -38 2 0 3 12 36 27 73 l27 68 7
-35 c4 -19 9 -51 11 -70z"/>
<path d="M1811 438 c-13 -84 -26 -159 -28 -165 -4 -9 6 -13 31 -13 34 0 36 2
42 40 4 24 20 55 39 77 l33 38 10 -40 c6 -22 15 -56 19 -75 8 -31 13 -35 47
-38 32 -3 37 -1 32 15 -2 10 -17 58 -31 106 l-27 89 52 59 51 59 -38 0 c-35
-1 -43 -7 -98 -75 -33 -40 -61 -72 -63 -70 -2 2 1 29 7 61 16 83 15 84 -22 84
l-33 0 -23 -152z"/>
<path d="M2181 528 c-16 -35 -49 -107 -75 -162 -25 -54 -46 -100 -46 -102 0
-2 15 -4 33 -4 29 0 35 5 46 35 12 35 13 35 72 35 l59 0 0 -35 c0 -34 1 -35
41 -35 29 0 40 4 36 13 -2 6 -15 81 -28 165 l-24 152 -43 0 -43 0 -28 -62z
m71 -108 c3 -34 2 -35 -34 -38 -21 -2 -38 -1 -38 2 0 3 12 36 27 73 l27 68 7
-35 c4 -19 9 -51 11 -70z"/>
<path d="M2430 576 c0 -8 -3 -21 -6 -30 -5 -13 6 -16 67 -18 l72 -3 -90 -105
c-49 -58 -93 -117 -97 -132 l-6 -28 130 0 130 0 0 30 0 30 -75 0 c-41 0 -75 3
-75 6 0 3 40 52 89 110 49 57 91 116 94 129 l4 25 -118 0 c-96 0 -119 -3 -119
-14z"/>
<path d="M2699 543 c11 -27 29 -70 40 -97 19 -43 20 -56 11 -104 -15 -81 -14
-82 24 -82 l33 0 12 71 c10 62 20 84 76 165 l64 94 -34 0 c-29 0 -37 -7 -76
-66 l-43 -67 -24 67 c-25 66 -25 66 -63 66 l-39 0 19 -47z"/>
<path d="M2441 171 c-11 -15 -18 -31 -15 -34 3 -3 1 -22 -5 -42 -7 -27 -7 -35
2 -32 6 2 15 18 18 37 4 18 12 36 19 40 9 6 9 9 0 15 -10 6 -9 11 4 21 10 7
13 15 7 18 -5 4 -19 -7 -30 -23z"/>
<path d="M1840 133 c-7 -32 -15 -62 -18 -67 -2 -5 1 -7 9 -4 7 2 16 19 20 37
10 48 19 50 19 3 0 -55 19 -55 48 1 l22 42 -6 -42 c-9 -66 12 -51 25 18 18 87
-1 94 -41 16 -18 -37 -22 -40 -29 -22 -4 11 -8 32 -8 48 -2 51 -29 31 -41 -30z"/>
<path d="M2000 179 c0 -5 5 -7 10 -4 6 3 10 8 10 11 0 2 -4 4 -10 4 -5 0 -10
-5 -10 -11z"/>
<path d="M2730 179 c0 -5 5 -7 10 -4 6 3 10 8 10 11 0 2 -4 4 -10 4 -5 0 -10
-5 -10 -11z"/>
<path d="M2585 163 c-14 -35 -16 -103 -3 -103 8 0 13 14 14 37 0 20 5 38 11
40 12 4 5 43 -7 43 -4 0 -11 -8 -15 -17z"/>
<path d="M698 160 c-317 -3 -580 -8 -584 -12 -9 -10 337 -10 1084 -1 315 3
572 10 572 15 0 8 -57 8 -1072 -2z"/>
<path d="M1990 143 c0 -5 -4 -25 -9 -45 -5 -22 -5 -38 0 -38 5 0 11 12 15 28
3 15 8 35 11 45 2 9 0 17 -6 17 -6 0 -11 -3 -11 -7z"/>
<path d="M2027 143 c-13 -13 -7 -32 13 -38 11 -3 20 -13 20 -21 0 -17 -12 -18
-28 -2 -13 13 -27 5 -17 -11 10 -17 55 -13 62 6 4 10 -2 23 -15 34 -26 20 -28
29 -7 29 8 0 15 -5 15 -11 0 -5 5 -7 10 -4 6 4 8 11 5 16 -7 10 -48 12 -58 2z"/>
<path d="M2113 138 c-29 -36 -17 -78 22 -78 49 0 62 82 14 88 -14 2 -30 -3
-36 -10z m47 -21 c0 -22 -16 -47 -31 -47 -13 0 -19 32 -9 51 15 27 40 24 40
-4z"/>
<path d="M2207 143 c-13 -13 -7 -32 13 -38 11 -3 20 -13 20 -21 0 -17 -12 -18
-28 -2 -13 13 -27 5 -17 -11 10 -17 55 -13 62 6 4 10 -2 23 -15 34 -26 20 -28
29 -7 29 8 0 15 -5 15 -11 0 -5 5 -7 10 -4 6 4 8 11 5 16 -7 10 -48 12 -58 2z"/>
<path d="M2297 144 c-4 -4 -7 -12 -7 -18 0 -6 5 -5 12 2 14 14 38 16 38 3 0
-5 -13 -12 -29 -16 -52 -11 -52 -55 0 -55 31 0 37 7 41 55 3 26 -1 30 -22 33
-14 2 -29 0 -33 -4z m33 -53 c0 -14 -18 -23 -30 -16 -6 4 -8 11 -5 16 8 12 35
12 35 0z"/>
<path d="M2483 138 c-29 -36 -17 -78 22 -78 49 0 62 82 14 88 -14 2 -30 -3
-36 -10z m47 -21 c0 -22 -16 -47 -31 -47 -13 0 -19 32 -9 51 15 27 40 24 40
-4z"/>
<path d="M2637 143 c-13 -13 -7 -32 13 -38 11 -3 20 -13 20 -21 0 -17 -12 -18
-28 -2 -13 13 -27 5 -17 -11 10 -17 55 -13 62 6 4 10 -2 23 -15 34 -26 20 -28
29 -7 29 8 0 15 -5 15 -11 0 -5 5 -7 10 -4 6 4 8 11 5 16 -7 10 -48 12 -58 2z"/>
<path d="M2720 143 c0 -5 -4 -25 -9 -45 -5 -22 -5 -38 0 -38 5 0 11 12 15 28
3 15 8 35 11 45 2 9 0 17 -6 17 -6 0 -11 -3 -11 -7z"/>
<path d="M2760 143 c0 -5 -4 -25 -9 -45 -5 -22 -5 -38 0 -38 5 0 12 12 15 28
15 62 50 72 40 12 -7 -47 9 -55 18 -9 11 54 8 59 -29 59 -19 0 -35 -3 -35 -7z"/>
<path d="M2856 95 c6 -47 4 -55 -10 -55 -9 0 -16 -5 -16 -11 0 -6 8 -9 18 -7
18 3 90 128 74 128 -5 0 -15 -13 -22 -30 -7 -16 -16 -30 -21 -30 -5 0 -9 14
-9 30 0 17 -5 30 -10 30 -6 0 -8 -20 -4 -55z"/>
</g>
</svg>
